{"title":"masterchef.australia.s05e62.pdtv.x264-RWN","uid":8859131,"size":344894063,"categoryP":"video","categoryS":"tv_shows","magnet":"?xt=urn:btih:b1a4e372b3504534ffa948efcf1a1a2cc013ec01&amp;dn=masterchef.australia.s05e62.pdtv.x264-RWN&amp;tr=udp%3A%2F%2Ftracker.openbittorrent.com%3A80&amp;tr=udp%3A%2F%2Fopen.demonii.com%3A1337&amp;tr=udp%3A%2F%2Ftracker.coppersurfer.tk%3A6969&amp;tr=udp%3A%2F%2Fexodus.desync.com%3A6969","seeders":1,"leechers":0,"uploader":"rawenkoye","files":1,"time":1377734072,"description":"\n     \n\n\nFormat profile : Base Media\n      Codec ID : isom\n      File size : 329 MiB\n      Duration : 44mn 31s\n      Overall bit rate mode : Variable\n      Overall bit rate : 1 033 Kbps\n      Encoded date : UTC 2013-08-28 20:59:14\n      Tagged date : UTC 2013-08-28 20:59:14\n      Writing application : vlc 2.0.7 stream output\n   Video #2\n      ID : 2\n      Format : AVC\n      Format/Info : Advanced Video Codec\n      Format profile : &lt;a class=&quot;__cf_email__&quot; href=&quot;/cdn-cgi/l/email-protection&quot; data-cfemail=&quot;b7ffded0dff7fb849987&quot;&gt;[email&amp;#160;protected]&lt;/a&gt;&lt;script cf-hash='f9e31' type=&quot;text/javascript&quot;&gt;\n/* &lt;![CDATA[ */!function(){try{var t=&quot;currentScript&quot;in document?document.currentScript:function(){for(var t=document.getElementsByTagName(&quot;script&quot;),e=t.length;e--;)if(t[e].getAttribute(&quot;cf-hash&quot;))return t[e]}();if(t&amp;&amp;t.previousSibling){var e,r,n,i,c=t.previousSibling,a=c.getAttribute(&quot;data-cfemail&quot;);if(a){for(e=&quot;&quot;,r=parseInt(a.substr(0,2),16),n=2;a.length-n;n+=2)i=parseInt(a.substr(n,2),16)^r,e+=String.fromCharCode(i);e=document.createTextNode(e),c.parentNode.replaceChild(e,c)}}}catch(u){}}();/* ]]&gt; */&lt;/script&gt;\n      Format settings, CABAC : Yes\n      Format settings, ReFrames : 4 frames\n      Codec ID : avc1\n      Codec ID/Info : Advanced Video Coding\n      Duration : 44mn 31s\n      Source duration : 44mn 31s\n      Bit rate : 796 Kbps\n      Width : 640 pixels\n      Height : 352 pixels\n      Display aspect ratio : 16:9\n      Frame rate : 25.000 fps\n      Color space : YUV\n      Chroma subsampling : 4:2:0\n      Bit depth : 8 bits\n      Scan type : Progressive\n      Bits/(Pixel*Frame) : 0.141\n      Stream size : 253 MiB (77%)\n      Source stream size : 253 MiB (77%)\n      Language : English\n      Encoded date : UTC 2013-08-28 20:59:14\n      Tagged date : UTC 2013-08-28 20:59:14\n      mdhd_Duration : 2671040\n   Audio #1\n      ID : 1\n      Format : MPEG Audio\n      Format version : Version 1\n      Format profile : Layer 3\n      Mode : Joint stereo\n      Codec ID : 6B\n      Duration : 44mn 30s\n      Source duration : 44mn 30s\n      Bit rate mode : Variable\n      Bit rate : 232 Kbps\n      Minimum bit rate : 32.0 Kbps\n      Maximum bit rate : 320 Kbps\n      Channel(s) : 2 channels\n      Sampling rate : 48.0 KHz\n      Compression mode : Lossy\n      Stream size : 73.7 MiB (22%)\n      Source stream size : 73.7 MiB (22%)\n      Writing library : LAME3.98r\n      Encoding settings : -m j -V 0 -q 0 -lowpass 19.5 --vbr-new -b 32\n      Language : English\n      Encoded date : UTC 2013-08-28 20:59:14\n      Tagged date : UTC 2013-08-28 20:59:14\n      mdhd_Duration : 2670912","torrent":{"xt":"urn:btih:b1a4e372b3504534ffa948efcf1a1a2cc013ec01","amp;dn":"masterchef.australia.s05e62.pdtv.x264-RWN","amp;tr":["udp%3A%2F%2Ftracker.openbittorrent.com%3A80","udp%3A%2F%2Fopen.demonii.com%3A1337","udp%3A%2F%2Ftracker.coppersurfer.tk%3A6969","udp%3A%2F%2Fexodus.desync.com%3A6969"],"infoHash":"b1a4e372b3504534ffa948efcf1a1a2cc013ec01","infoHashBuffer":{"type":"Buffer","data":[177,164,227,114,179,80,69,52,255,169,72,239,207,26,26,44,192,19,236,1]},"announce":[],"urlList":[]}}